<svg version="1.1" xmlns="http://www.w3.org/2000/svg" xmlns:xlink="http://www.w3.org/1999/xlink" width="20" height="16" viewBox="0,0,100,100"><g transform="translate(-10,-10) scale(0.22,0.22)"><path fill="#0e6b2d" d="M148.699,421.618 C148.699,421.618,163.699,421.618,163.699,421.618 C163.699,421.618,163.699,501.618,163.699,501.618 C163.699,501.618,148.699,501.618,148.699,501.618 C148.699,501.618,148.699,421.618,148.699,421.618Z M449.699,170.618 C449.699,170.618,464.699,170.618,464.699,170.618 C464.699,170.618,464.699,500.618,464.699,500.618 C464.699,500.618,449.699,500.618,449.699,500.618 C449.699,500.618,449.699,170.618,449.699,170.618Z M149.699,98 C149.699,98,389.699,98,389.699,98 C389.699,98,389.699,113,389.699,113 C389.699,113,149.699,113,149.699,113 C149.699,113,149.699,98,149.699,98Z M149.699,488 C149.699,488,459.699,488,459.699,488 C459.699,488,459.699,503,459.699,503 C459.699,503,149.699,503,149.699,503 C149.699,503,149.699,488,149.699,488Z M150,101.618 C150,101.618,165,101.618,165,101.618 C165,101.618,165,151.618,165,151.618 C165,151.618,150,151.618,150,151.618 C150,151.618,150,101.618,150,101.618Z M33.617,256.617 C33.617,256.617,34.887,231.403,34.887,231.403 C34.887,231.403,34.887,156.554,34.887,156.554 C34.887,156.554,0,156.554,0,156.554 C0,156.554,0,409.801,0,409.801 C1.691,410.965,4.758,412.285,9.196,413.766 C27.275,419.791,45.353,422.805,63.432,422.805 C90.706,422.805,112.8,413.502,129.715,394.894 C146.313,376.395,154.612,352.398,154.612,322.902 C154.612,294.991,147.476,273.318,133.205,257.884 C120.202,243.719,103.55,236.634,83.251,236.634 C63.482,236.634,46.937,243.296,33.617,256.617Z M70.764,269.394 C101.106,269.394,116.276,290.063,116.276,331.398 C116.276,354.128,111.255,371.887,101.212,384.681 C91.909,396.521,79.696,402.439,64.579,402.439 C48.934,402.439,38.097,400.325,32.072,396.097 C32.072,396.097,32.072,284.142,32.072,284.142 C44.759,274.309,57.656,269.394,70.764,269.394Z M281.005,256.349 C281.005,256.349,282.275,231.135,282.275,231.135 C282.275,231.135,282.275,156.286,282.275,156.286 C282.275,156.286,247.388,156.286,247.388,156.286 C247.388,156.286,247.388,409.533,247.388,409.533 C249.079,410.697,252.143,412.018,256.584,413.498 C274.663,419.523,292.739,422.537,310.817,422.537 C338.092,422.537,360.188,413.234,377.103,394.626 C393.701,376.127,402,352.13,402,322.635 C402,294.723,394.864,273.051,380.591,257.616 C367.587,243.452,350.938,236.367,330.639,236.367 C310.87,236.367,294.326,243.028,281.005,256.349Z M320.317,266.961 C350.658,266.961,365.829,287.631,365.829,328.966 C365.829,351.696,360.805,369.455,350.762,382.248 C341.46,394.088,329.249,400.007,314.132,400.007 C298.487,400.007,287.65,397.893,281.625,393.665 C281.625,393.665,281.625,281.709,281.625,281.709 C294.309,271.876,307.206,266.961,320.317,266.961Z M179.484,249.57 C179.484,249.57,179.484,423.805,179.484,423.805 C179.484,423.805,216.91,423.805,216.91,423.805 C216.91,423.805,216.91,249.57,216.91,249.57 C216.91,249.57,179.484,249.57,179.484,249.57Z M216.409,207.127 C218.961,205.034,221.001,202.532,222.534,199.622 C224.063,196.716,224.83,192.862,224.83,188.064 C224.83,183.268,222.846,179.03,218.875,175.358 C216.947,173.418,214.481,171.911,211.474,170.841 C208.47,169.768,204.187,169.233,198.631,169.233 C193.075,169.233,187.516,171.529,181.959,176.121 C179.351,178.267,177.253,180.791,175.665,183.7 C174.079,186.609,173.285,190.438,173.285,195.184 C173.285,199.929,175.665,204.242,180.43,208.121 C182.698,209.958,185.278,211.362,188.168,212.332 C191.06,213.301,194.181,213.786,197.525,213.786 C200.871,213.786,204.218,213.198,207.562,212.025 C210.908,210.852,213.218,209.74,214.495,208.695 C215.771,207.65,216.409,207.127,216.409,207.127Z M202,1.805 C138,-39.195,266,42.805,202,1.805Z M348,102.805 C348,102.805,348,154.805,348,154.805 C348,154.805,348,102.805,348,102.805Z M369,112.805 C369,112.805,369,178.805,369,178.805 C369,178.805,384,178.805,384,178.805 C384,178.805,384,112.805,384,112.805 C384,112.805,369,112.805,369,112.805Z M369,178.805 C369,178.805,369,193.805,369,193.805 C369,193.805,450,193.805,450,193.805 C450,193.805,450,178.805,450,178.805 C450,178.805,369,178.805,369,178.805Z M390.196,98 C390.196,98,462.805,170.609,462.805,170.609 C462.805,170.609,451.804,181.61,451.804,181.61 C451.804,181.61,379.195,109.001,379.195,109.001 C379.195,109.001,390.196,98,390.196,98Z"/></g></svg>
