<?xml version="1.0" encoding="utf-8"?>
<!-- Generator: Adobe Illustrator 19.0.0, SVG Export Plug-In . SVG Version: 6.00 Build 0)  -->
<svg version="1.1" id="Layer_1" xmlns="http://www.w3.org/2000/svg" xmlns:xlink="http://www.w3.org/1999/xlink" height="16" width="20" x="0px" y="0px"
	 viewBox="65 220 33 33" style="enable-background:new 50 0 100 100;" xml:space="preserve">
<style type="text/css">
	.st0{fill:#0e6b2d;}
</style>
<g id="XMLID_1_">
	<path id="XMLID_57_" class="st0" d="M101.7,235.3c-0.4-2.1-2.1-3.6-4.2-3.8c-3.7-0.3-7,1.7-10.6,2.3c-0.3,0.1-0.7-0.6-1-0.9
		c1.7-1.3,1.5-3.7-0.5-4.8c-0.1-0.2-0.1-1.6,0-1.6c0.2-0.1,1.4,0.1,1.6,0c0.2-0.2,0.1-1.6,0-1.8c-0.1-0.1-1.5,0-1.6-0.1
		c-0.1-0.1,0-1.4-0.1-1.5c-0.1-0.1-0.5-0.1-0.7-0.1c-0.2,0-0.6,0-0.7,0.1c-0.1,0.1,0,1.4-0.1,1.5c-0.1,0.1-1.5-0.1-1.6,0.1
		c-0.1,0.1-0.1,1.6,0,1.8c0.2,0.2,1.4-0.1,1.6,0c0.1,0.1,0.1,1.5,0,1.6c-1.9,1.1-2.2,3.6-0.5,4.8c-0.4,0.4-0.7,1-1,0.9
		c-3.6-0.6-6.8-2.6-10.6-2.3c-2.1,0.2-3.8,1.6-4.2,3.8c-0.7,3.8,2.1,6.7,3.4,10c0.4,1,0.8,2.4,0.7,3.6c0,0,10.8,0,12.8,0h0.1h0.1
		c1.9,0,12.8,0,12.8,0c-0.1-1.2,0.3-2.5,0.7-3.6C99.6,242,102.3,239.1,101.7,235.3 M83.1,243.7c-0.3,1.9-1.4,3.1-2.3,3.1
		c-0.6,0-1-0.2-1.5-0.6c-0.6-0.5-1.1-1.3-0.9-1.8c0.1-0.2,1.7,0.1,1.8-0.1c0.1-0.2-0.2-1.4-0.4-1.5c-0.2-0.2-1.6,0.1-1.8-0.1
		c-0.2-0.2-0.4-1.7-0.6-1.8c0,0-1.5-0.2-1.6,0c-0.1,0.2,0.5,1.5,0.4,1.7c-0.1,0.2-2.1-0.2-2.1,0c0,0.2,0.1,1.3,0.3,1.5
		c0.2,0.2,2,0.2,2,0.2c0.4,0.3,0.5,0.9,0.5,1.5c0,0.8-0.6,1.2-1.6,0.9c-1.8-0.5-4-4.4-5.3-7.1c-1-2-1.6-5.2,1-6.2
		c1.5-0.6,3.2-0.3,4.8,0.2c1.7,0.5,4,1.2,5.4,2.1c0.3,0.2-0.4,0,0.8,2.7C82.8,239.7,83.3,242.4,83.1,243.7 M93.8,246.7
		c-1,0.3-1.6-0.1-1.6-0.9c0-0.6,0.1-1.2,0.5-1.5c0,0,1.8,0,2-0.2c0.2-0.2,0.3-1.3,0.3-1.5c0-0.2-2,0.2-2.1,0
		c-0.1-0.2,0.5-1.5,0.4-1.7c-0.1-0.2-1.6,0-1.6,0c-0.2,0.1-0.4,1.6-0.6,1.8c-0.2,0.2-1.6-0.1-1.8,0.1c-0.2,0.2-0.5,1.4-0.4,1.5
		c0.1,0.2,1.7-0.1,1.8,0.1c0.2,0.5-0.3,1.3-0.9,1.8c-0.4,0.4-0.9,0.6-1.5,0.6c-0.9,0-1.9-1.2-2.3-3.1c-0.2-1.3,0.3-4,0.9-5.2
		c1.2-2.7,0.5-2.5,0.8-2.7c1.4-0.8,3.7-1.5,5.4-2.1c1.7-0.5,3.3-0.8,4.8-0.2c2.5,1,2,4.2,1,6.2C97.8,242.4,95.6,246.2,93.8,246.7"/>
	<polygon id="XMLID_58_" class="st0" points="97.8,252.8 97.8,250.6 84.8,250.6 84.5,250.6 71.4,250.6 71.4,252.8 84.5,252.8 
		84.8,252.8 	"/>
</g>
</svg>
